# xmcd
#
# Track frame offsets: 
#        150
#        17025
#        40612
#
# Disc length: 827 seconds
#
# Revision: 0
# Processed by: cddbd v1.5PL3 Copyright (c) Steve Scherf et al.
# Submitted via: ExactAudioCopy v0.95a4
#
DISCID=17033903
DTITLE=TSUNKU - TOUCH ME
DYEAR=1999
DGENRE=JPop
TTITLE0=Touch me #1
TTITLE1=Touch me #2
TTITLE2=Touch me #4
EXTD=
EXTT0=
EXTT1=
EXTT2=
PLAYORDER=
